# xmcd
#
# Track frame offsets:
#	150
#	19600
#	40562
#	67600
#	96050
#	118637
#	147837
#	165275
#	184987
#	197887
#	213862
#
# Disc length: 3152 seconds
#
# Revision: 0
# Processed by: cddbd v1.5.2PL0 Copyright (c) Steve Scherf et al.
# Submitted via: dBpowerAMP V4.0
#
DISCID=860c4e0b
DTITLE=Willie Mabon - Blues Classics
DYEAR=1996
DGENRE=Blues
TTITLE0=Little Red Rooster
TTITLE1=Lonely Blues
TTITLE2=It's a Shame
TTITLE3=Moanin' Blues
TTITLE4=Monday Woman - A Tribute To Jimmy Reed
TTITLE5=Louise - A Tribute To Howlin' Wolf
TTITLE6=Seventh Son - Dedicated To Willie Dixon
TTITLE7=I'm Mad
TTITLE8=A Change Is Gonna Come
TTITLE9=Mabon's Boogie
TTITLE10=I Don't Know
EXTD=
EXTT0=
EXTT1=
EXTT2=
EXTT3=
EXTT4=
EXTT5=
EXTT6=
EXTT7=
EXTT8=
EXTT9=
EXTT10=
PLAYORDER=
